<svg width="210" height="210" viewBox="0 0 210 210" fill="none" xmlns="http://www.w3.org/2000/svg">
<g filter="url(#filter0_d_2_16)">
<circle cx="109" cy="101" r="101" fill="#ECECEC"/>
<circle cx="109" cy="101" r="95" fill="#B9887E"/>
<path d="M142.016 128.938L115.203 80.1875L107.141 128H97.7656L109.906 59.3281H113.656L139.906 106.109L147.828 59.3281H157.109L144.828 128.938H142.016Z" fill="#343A60"/>
<path d="M142.016 128.938L141.139 129.419C141.315 129.739 141.651 129.938 142.016 129.938V128.938ZM115.203 80.1875L116.079 79.7056C115.874 79.3327 115.456 79.1304 115.036 79.2016C114.616 79.2727 114.288 79.6016 114.217 80.0212L115.203 80.1875ZM107.141 128V129C107.629 129 108.046 128.648 108.127 128.166L107.141 128ZM97.7656 128L96.7809 127.826C96.7294 128.117 96.8094 128.416 96.9994 128.643C97.1894 128.869 97.47 129 97.7656 129V128ZM109.906 59.3281V58.3281C109.421 58.3281 109.006 58.6763 108.922 59.154L109.906 59.3281ZM113.656 59.3281L114.528 58.8388C114.351 58.5234 114.018 58.3281 113.656 58.3281V59.3281ZM139.906 106.109L139.034 106.599C139.242 106.968 139.66 107.167 140.077 107.095C140.495 107.022 140.821 106.694 140.892 106.276L139.906 106.109ZM147.828 59.3281V58.3281C147.34 58.3281 146.924 58.6802 146.842 59.1612L147.828 59.3281ZM157.109 59.3281L158.094 59.5019C158.146 59.2108 158.065 58.9118 157.875 58.6854C157.685 58.4589 157.405 58.3281 157.109 58.3281V59.3281ZM144.828 128.938V129.938C145.313 129.938 145.729 129.589 145.813 129.111L144.828 128.938ZM142.892 128.456L116.079 79.7056L114.327 80.6694L141.139 129.419L142.892 128.456ZM114.217 80.0212L106.155 127.834L108.127 128.166L116.189 80.3538L114.217 80.0212ZM107.141 127H97.7656V129H107.141V127ZM98.7504 128.174L110.891 59.5022L108.922 59.154L96.7809 127.826L98.7504 128.174ZM109.906 60.3281H113.656V58.3281H109.906V60.3281ZM112.784 59.8175L139.034 106.599L140.778 105.62L114.528 58.8388L112.784 59.8175ZM140.892 106.276L148.814 59.4951L146.842 59.1612L138.92 105.942L140.892 106.276ZM147.828 60.3281H157.109V58.3281H147.828V60.3281ZM156.125 59.1544L143.843 128.764L145.813 129.111L158.094 59.5019L156.125 59.1544ZM144.828 127.938H142.016V129.938H144.828V127.938Z" fill="#3C4374"/>
<path d="M101.016 140.938L74.2031 92.1875L66.1406 140H56.7656L68.9062 71.3281H72.6562L98.9062 118.109L106.828 71.3281H116.109L103.828 140.938H101.016Z" fill="#F3F3F3"/>
<path d="M101.016 140.938L100.139 141.419L100.424 141.938H101.016V140.938ZM74.2031 92.1875L75.0793 91.7056L73.6948 89.1882L73.217 92.0212L74.2031 92.1875ZM66.1406 140V141H66.9861L67.1267 140.166L66.1406 140ZM56.7656 140L55.7809 139.826L55.5733 141H56.7656V140ZM68.9062 71.3281V70.3281H68.0675L67.9215 71.154L68.9062 71.3281ZM72.6562 71.3281L73.5283 70.8388L73.2418 70.3281H72.6562V71.3281ZM98.9062 118.109L98.0342 118.599L99.4195 121.068L99.8922 118.276L98.9062 118.109ZM106.828 71.3281V70.3281H105.983L105.842 71.1612L106.828 71.3281ZM116.109 71.3281L117.094 71.5019L117.301 70.3281H116.109V71.3281ZM103.828 140.938V141.938H104.667L104.813 141.111L103.828 140.938ZM101.892 140.456L75.0793 91.7056L73.3269 92.6694L100.139 141.419L101.892 140.456ZM73.217 92.0212L65.1545 139.834L67.1267 140.166L75.1892 92.3538L73.217 92.0212ZM66.1406 139H56.7656V141H66.1406V139ZM57.7504 140.174L69.891 71.5022L67.9215 71.154L55.7809 139.826L57.7504 140.174ZM68.9062 72.3281H72.6562V70.3281H68.9062V72.3281ZM71.7842 71.8175L98.0342 118.599L99.7783 117.62L73.5283 70.8388L71.7842 71.8175ZM99.8922 118.276L107.814 71.4951L105.842 71.1612L97.9203 117.942L99.8922 118.276ZM106.828 72.3281H116.109V70.3281H106.828V72.3281ZM115.125 71.1544L102.843 140.764L104.813 141.111L117.094 71.5019L115.125 71.1544ZM103.828 139.938H101.016V141.938H103.828V139.938Z" fill="#4F588A"/>
</g>
<defs>
<filter id="filter0_d_2_16" x="0" y="0" width="210" height="210" filterUnits="userSpaceOnUse" color-interpolation-filters="sRGB">
<feFlood flood-opacity="0" result="BackgroundImageFix"/>
<feColorMatrix in="SourceAlpha" type="matrix" values="0 0 0 0 0 0 0 0 0 0 0 0 0 0 0 0 0 0 127 0" result="hardAlpha"/>
<feOffset dx="-4" dy="4"/>
<feGaussianBlur stdDeviation="2"/>
<feComposite in2="hardAlpha" operator="out"/>
<feColorMatrix type="matrix" values="0 0 0 0 0 0 0 0 0 0 0 0 0 0 0 0 0 0 0.25 0"/>
<feBlend mode="normal" in2="BackgroundImageFix" result="effect1_dropShadow_2_16"/>
<feBlend mode="normal" in="SourceGraphic" in2="effect1_dropShadow_2_16" result="shape"/>
</filter>
</defs>
</svg>
